<svg xmlns="http://www.w3.org/2000/svg" data-name="Layer 1" viewBox="0 0 32 32"><path d="M27,16.589V7.50049a.48365.48365,0,0,0-.01306-.06561.45541.45541,0,0,0-.01215-.06116.49171.49171,0,0,0-.12-.22479l-.00128-.00244-7-7A.4919.4919,0,0,0,19.626.02509.46407.46407,0,0,0,19.56543.013.48088.48088,0,0,0,19.5,0H5.5A2.50263,2.50263,0,0,0,3,2.5v27A2.50263,2.50263,0,0,0,5.5,32H23.583a.47574.47574,0,0,0,.08374-.01691C23.77814,31.98773,23.88751,32,24,32a7.9969,7.9969,0,0,0,3-15.411ZM20,1.70709,25.29254,7H21.5A1.50164,1.50164,0,0,1,20,5.5ZM19.51263,7H7.5A.50065.50065,0,0,1,7,6.5v-2A.50065.50065,0,0,1,7.5,4H19V5.5A2.47615,2.47615,0,0,0,19.51263,7ZM5.5,31A1.50164,1.50164,0,0,1,4,29.5V2.5A1.50164,1.50164,0,0,1,5.5,1H19V3H7.5A1.50164,1.50164,0,0,0,6,4.5v2A1.50164,1.50164,0,0,0,7.5,8H26v8.26331A7.886,7.886,0,0,0,20.13562,17H12.5a.5.5,0,0,0,0,1h6.22626a7.99915,7.99915,0,0,0-2.463,4H12.5a.5.5,0,0,0,0,1h3.56946a7.75149,7.75149,0,0,0,.51953,4H12.5a.5.5,0,0,0,0,1h4.58246a8.05139,8.05139,0,0,0,3.05316,3ZM24,31a7,7,0,1,1,7-7A7.00818,7.00818,0,0,1,24,31Zm0-13a6,6,0,1,0,6,6A6.00656,6.00656,0,0,0,24,18Zm0,11a5,5,0,1,1,5-5A5.00589,5.00589,0,0,1,24,29Zm2.25-5.5h-.84192A1.45561,1.45561,0,0,0,24.5,22.58759V21.25a.5.5,0,0,0-1,0v1.3421a1.49652,1.49652,0,0,0,.31348,2.89618,1.55361,1.55361,0,0,0,.18945.01172,1.49554,1.49554,0,0,0,1.40936-1H26.25a.5.5,0,0,0,0-1Zm-1.94336.895A.50007.50007,0,1,1,23.999,23.5a.55371.55371,0,0,1,.06348.00391.50011.50011,0,0,1,.24414.89111Zm-14.168-14.24121-2.542,2.65186L6.83594,12.127a.50006.50006,0,1,0-.666.74609l1.12109,1a.50081.50081,0,0,0,.69434-.02686l2.876-3a.50041.50041,0,0,0-.72266-.69238Zm0,5-2.542,2.65186L6.83594,17.127a.50006.50006,0,1,0-.666.74609l1.12109,1a.50081.50081,0,0,0,.69434-.02686l2.876-3a.50041.50041,0,0,0-.72266-.69238Zm0,5-2.542,2.65186L6.83594,22.127a.50006.50006,0,1,0-.666.74609l1.12109,1a.50081.50081,0,0,0,.69434-.02686l2.876-3a.50041.50041,0,0,0-.72266-.69238Zm0,5-2.542,2.65186L6.83594,27.127a.50006.50006,0,1,0-.666.74609l1.12109,1a.50081.50081,0,0,0,.69434-.02686l2.876-3a.50041.50041,0,0,0-.72266-.69238ZM12.5,13h11a.5.5,0,0,0,0-1h-11a.5.5,0,0,0,0,1Z"/></svg>